<?xml version="1.0" encoding="UTF-8"?>
<svg width="16px" height="16px" viewBox="0 0 16 16" version="1.1" xmlns="http://www.w3.org/2000/svg" xmlns:xlink="http://www.w3.org/1999/xlink">
    <g>
        <path fill="#ffffff" d="M15.6652958,3.77228761 L12.2320844,0.3351235 C12.0181622,0.120748927 11.727957,0.000205995498 11.4252798,0 L11.4252798,0 C11.1226026,0.000205995498 10.8323973,0.120748927 10.6184751,0.3351235 L1.07414761,9.83888225 C0.966474487,9.94626703 0.894535432,10.084309 0.86815493,10.2341561 L0.00985209666,15.1407079 C-0.0254719877,15.3550487 0.0351953155,15.5740929 0.175727802,15.7396156 C0.316260289,15.9051383 0.522420972,16.0003708 0.739409505,15.9999989 L0.86815493,15.9999989 L5.76906411,15.1407079 C5.91873894,15.114297 6.05662212,15.0422751 6.16388341,14.934478 L15.6652958,5.39634765 C16.1115681,4.94717893 16.1115681,4.22145633 15.6652958,3.77228761 Z M8.36972176,4.63157845 L11.3566156,7.62191118 L5.27124852,13.7142845 L1.64921055,14.3501598 L2.29293768,10.7153588 L8.36972176,4.63157845 Z M12.4037448,6.57357626 L9.3739357,3.56605772 L11.3480323,1.5896884 L14.3349262,4.58002111 L12.4037448,6.57357626 Z"></path>
    </g>
</svg>