<?xml version="1.0" encoding="UTF-8"?>
<svg width="18px" height="16px" viewBox="0 0 18 16" version="1.1" xmlns="http://www.w3.org/2000/svg" xmlns:xlink="http://www.w3.org/1999/xlink">
    <g>
        <path fill="#919191" d="M1.05881531,6.49994907 C1.05881531,3.46747284 3.67144203,0.99999218 6.88229938,0.99999218 C10.0931567,0.99999218 12.7057835,3.46747284 12.7057835,6.49994907 C12.7057835,9.53242531 10.0931567,11.999906 6.88229938,11.999906 C3.67144203,11.999906 1.05881531,9.53242531 1.05881531,6.49994907 M16.7859286,15.1463816 L12.1027884,10.7234161 C13.1356628,9.58642503 13.7645991,8.11243656 13.7645991,6.49994917 C13.7645991,2.9159772 10.6770936,0 6.88229954,0 C3.08750545,0 0,2.9159772 0,6.49994917 C0,10.0839211 3.08750545,12.9998983 6.88229954,12.9998983 C8.58963923,12.9998983 10.150333,12.406403 11.354206,11.4304106 L16.0373461,15.853376 C16.1405806,15.9508753 16.276109,15.9998749 16.4116374,15.9998749 C16.5471657,15.9998749 16.6826941,15.9508753 16.7859286,15.853376 C16.992927,15.6578776 16.992927,15.34188 16.7859286,15.1463816"></path>
    </g>
</svg>